<?xml version="1.0" encoding="utf-8"?>
<!-- Generator: Adobe Illustrator 22.1.0, SVG Export Plug-In . SVG Version: 6.00 Build 0)  -->
<svg version="1.1" id="Layer_1" xmlns="http://www.w3.org/2000/svg" xmlns:xlink="http://www.w3.org/1999/xlink" x="0px" y="0px"
	 viewBox="0 0 194.3 42.6" style="enable-background:new 0 0 194.3 42.6;" xml:space="preserve">
<style type="text/css">
	.st0{fill:#00ACC1;}
</style>
<g>
	<path class="st0" d="M0,0.1h1.4h11.3c4.6,0,8.2,1.5,11,4.4c2.5,2.6,3.7,5.8,3.7,9.6c0,3.8-1.2,7-3.7,9.6c-2.7,2.9-6.4,4.3-11,4.3
		H4.1v13.1v1.4H2.7H1.4H0v-1.4V1.5V0.1z M4.1,24h8.5c3.4,0,6-1,8-3.1c1.7-1.8,2.6-4.1,2.6-6.8c0-2.7-0.9-4.9-2.6-6.8
		c-2-2.1-4.7-3.1-8-3.1H4.1V24z"/>
	<path class="st0" d="M33.4,0.3h1.4h1.4h1.4v1.4v39.6v1.4h-1.4h-1.4h-1.4v-1.4V1.6V0.3z"/>
	<path class="st0" d="M73.7,1.8c2.6,1.2,4.9,2.8,6.8,4.9l0.9,0.9l-0.9,0.9l-1,1l-1,1l-1-1c-1.5-1.7-3.4-3-5.4-4
		c-2.1-1-4.3-1.4-6.6-1.4c-4.6,0-8.5,1.7-11.7,5s-4.9,7.4-4.9,12.1c0,4.7,1.6,8.8,4.9,12.1c3.2,3.3,7.2,5,11.7,5
		c2.3,0,4.6-0.5,6.6-1.4c2.1-0.9,3.9-2.2,5.4-3.9l1-1l1,1l1,0.9l0.9,1L80.4,36c-1.9,2.1-4.2,3.7-6.8,4.9c-2.6,1.2-5.3,1.7-8.2,1.7
		c-3.7,0-7.2-1-10.4-2.9c-3.2-1.9-5.7-4.5-7.6-7.7c-1.9-3.3-2.8-6.8-2.8-10.7c0-3.8,0.9-7.4,2.8-10.7c1.8-3.3,4.4-5.8,7.6-7.7
		c3.2-1.9,6.6-2.9,10.4-2.9C68.3,0.1,71.1,0.7,73.7,1.8z"/>
	<path class="st0" d="M90.1,42.6V0.3h4.1V34L115,0.3h4.8L107,21.1l15,21.5h-5l-12.4-17.6L93.8,42.6h-2.3H90.1z"/>
	<path class="st0" d="M130.8,0h1.4h22.7h1.3v1.4v1.4v1.4h-1.3h-19.9v18.4h19.9h1.3v1.4v1.4v1.4h-1.3h-19.9v11.8h19.9h1.3v1.4v1.4
		v1.4h-1.3h-22.7h-1.4v-1.4V1.4V0z"/>
	<path class="st0" d="M165,0.1h1.4h9.3c4.6,0,8.2,1.5,11,4.4c2.5,2.6,3.7,5.8,3.7,9.6c0,3.8-1.2,7-3.7,9.6c-1,1.1-2.2,1.9-3.5,2.6
		l9.7,14.1l1.5,2.1h-2.6H190h-0.7l-0.4-0.6L179,27.8c-1.1,0.2-2.2,0.3-3.4,0.3h-6.5v13.1v1.4h-1.4h-1.4H165v-1.4V1.5V0.1z M169.1,24
		h6.5c3.4,0,6-1,8-3.1c1.7-1.8,2.6-4.1,2.6-6.8c0-2.7-0.9-4.9-2.6-6.8c-2-2.1-4.7-3.1-8-3.1h-6.5V24z"/>
</g>
</svg>
